<?xml version="1.0" standalone="no"?>
<!DOCTYPE svg PUBLIC "-//W3C//DTD SVG 20010904//EN"
 "http://www.w3.org/TR/2001/REC-SVG-20010904/DTD/svg10.dtd">
<svg version="1.0" xmlns="http://www.w3.org/2000/svg"
 width="512.000000pt" height="512.000000pt" viewBox="0 0 512.000000 512.000000"
 preserveAspectRatio="xMidYMid meet">

<g transform="translate(0.000000,512.000000) scale(0.100000,-0.100000)"
fill="#f1f1f1" stroke="none">
<path d="M2325 5029 c-312 -32 -570 -106 -850 -244 -513 -253 -889 -628 -1140
-1140 -185 -375 -267 -755 -252 -1165 14 -382 95 -696 263 -1032 121 -242 264
-438 464 -638 625 -627 1505 -868 2374 -649 155 39 279 85 451 168 264 127
463 269 675 481 349 348 584 783 679 1255 37 185 46 278 46 495 0 217 -9 310
-46 495 -131 654 -541 1245 -1115 1606 -117 74 -341 183 -477 233 -319 118
-733 170 -1072 135z m20 -211 c-37 -79 -31 -161 17 -230 10 -14 18 -28 18 -31
0 -2 -42 -10 -92 -17 -336 -46 -665 -183 -940 -392 l-78 -59 0 28 c-1 75 -75
164 -160 193 l-52 18 92 71 c170 132 400 259 604 335 167 63 460 130 588 135
l27 1 -24 -52z m547 36 c381 -53 770 -217 1078 -455 l92 -71 -52 -18 c-85 -29
-159 -118 -160 -193 0 -28 0 -28 -80 33 -271 206 -607 346 -937 390 -51 7 -93
15 -93 17 0 3 8 17 18 31 48 69 54 151 17 230 -28 61 -38 58 117 36z m-277
-79 c16 -15 25 -36 25 -55 0 -19 -9 -40 -25 -55 -49 -50 -135 -15 -135 55 0
41 39 80 80 80 19 0 40 -9 55 -25z m133 -386 c55 -6 122 -16 149 -22 l50 -12
-187 -294 c-103 -162 -191 -296 -196 -297 -8 -3 -373 557 -382 585 -2 5 21 14
50 20 144 30 353 38 516 20z m187 -1511 c506 -787 936 -1457 957 -1488 l36
-58 -65 -66 -66 -66 -1237 0 -1237 0 -66 66 -66 65 73 112 c39 62 280 435 535
830 254 394 466 717 469 717 4 0 50 -73 103 -162 l96 -161 -343 -571 -342
-571 389 -3 c214 -1 564 -1 778 0 l389 3 -668 1114 -668 1113 -25 -38 c-14
-22 -190 -307 -391 -634 l-366 -595 260 -5 259 -5 -101 -157 -102 -158 -387 0
-386 0 -13 73 c-6 40 -10 82 -9 94 6 36 1242 1982 1259 1983 9 0 378 -565 935
-1432z m820 451 c341 -539 622 -990 624 -1002 1 -12 -3 -54 -9 -94 l-13 -73
-386 0 -386 0 -102 160 -102 160 260 2 259 3 -381 620 c-210 341 -386 625
-393 632 -8 9 -42 -41 -141 -207 -71 -121 -132 -219 -135 -219 -3 0 -47 65
-98 146 l-93 146 77 121 c42 66 142 226 223 353 85 135 152 232 161 232 9 0
264 -393 635 -980z m-2047 839 c-8 -13 -232 -366 -498 -786 -266 -419 -485
-760 -487 -758 -8 8 18 218 39 316 107 501 415 932 857 1199 93 56 110 62 89
29z m1793 -29 c200 -120 426 -328 562 -519 132 -186 245 -447 296 -680 20 -94
46 -309 38 -316 -2 -3 -221 339 -487 758 -266 420 -490 773 -498 786 -21 33
-4 27 89 -29z m-2432 16 c91 -46 22 -176 -74 -139 -18 7 -45 55 -45 79 0 21
54 75 75 75 9 0 29 -7 44 -15z m3072 -14 c16 -16 29 -37 29 -46 0 -24 -27 -72
-45 -79 -100 -38 -163 92 -70 142 33 18 55 14 86 -17z m-3319 -166 c35 -65
122 -125 183 -125 25 0 23 -3 -35 -80 -207 -272 -346 -605 -390 -937 -7 -51
-15 -93 -17 -93 -3 0 -17 8 -31 18 -69 48 -151 54 -229 17 -63 -29 -61 -36
-38 118 59 398 216 767 464 1087 65 83 65 84 72 55 3 -17 13 -43 21 -60z
m3578 -6 c236 -305 401 -698 454 -1077 22 -155 25 -145 -36 -117 -79 37 -161
31 -230 -17 -14 -10 -28 -18 -31 -18 -2 0 -10 42 -17 93 -44 331 -184 665
-392 940 l-59 77 28 0 c75 1 173 84 195 165 7 25 13 45 15 45 1 0 34 -41 73
-91z m-2312 -670 c54 -91 81 -146 77 -157 -3 -9 -77 -126 -163 -259 l-156
-243 -168 0 c-92 0 -168 3 -168 6 0 9 484 794 490 794 3 0 42 -64 88 -141z
m1280 -253 c133 -217 242 -397 242 -400 0 -3 -75 -6 -167 -6 l-168 1 -160 251
c-88 137 -161 254 -163 259 -4 9 159 288 168 289 3 0 114 -178 248 -394z
m-2913 -431 c50 -49 15 -135 -55 -135 -41 0 -80 39 -80 80 0 41 39 80 80 80
19 0 40 -9 55 -25z m4320 0 c50 -49 15 -135 -55 -135 -41 0 -80 39 -80 80 0
19 9 40 25 55 15 16 36 25 55 25 19 0 40 -9 55 -25z m-2106 -285 l99 -165
-104 -3 c-57 -1 -151 -1 -208 0 l-104 3 101 168 c55 92 104 166 109 165 4 -2
53 -77 107 -168z m-2089 -42 c45 -334 183 -665 392 -940 48 -63 55 -78 40 -78
-38 0 -107 -31 -140 -63 -38 -36 -62 -78 -72 -122 -6 -29 -7 -28 -78 64 -238
308 -403 698 -456 1079 -22 155 -25 145 37 117 78 -37 163 -31 227 16 14 10
28 19 31 19 3 0 12 -42 19 -92z m4008 74 c69 -48 151 -54 230 -17 61 28 58 38
36 -117 -53 -380 -218 -771 -456 -1079 -71 -92 -72 -93 -78 -64 -10 44 -34 86
-72 122 -32 32 -102 63 -139 63 -15 0 -4 20 49 93 124 167 196 296 266 476 46
116 100 324 116 449 7 50 15 92 17 92 3 0 17 -8 31 -18z m-3164 -374 c-11 -17
-336 -522 -338 -525 -6 -7 -129 193 -168 272 -42 84 -87 190 -103 243 l-6 22
311 0 c246 0 310 -3 304 -12z m1539 -148 l96 -160 -499 0 -499 0 96 160 96
160 307 0 307 0 96 -160z m1347 155 c0 -18 -77 -201 -120 -283 -55 -109 -140
-236 -155 -235 -8 0 -184 266 -315 476 l-30 47 310 0 c171 0 310 -2 310 -5z
m-3223 -907 c41 -38 28 -105 -25 -127 -36 -15 -75 -2 -98 33 -48 74 58 155
123 94z m3053 2 c62 -62 -1 -163 -82 -129 -33 14 -48 37 -48 75 0 63 85 99
130 54z m-600 -86 c-87 -57 -306 -159 -415 -194 -454 -144 -925 -113 -1350 90
-66 31 -149 75 -185 98 l-65 42 1035 0 1035 -1 -55 -35z m-2034 -142 c227
-142 518 -247 782 -282 50 -7 92 -15 92 -17 0 -3 -8 -17 -18 -31 -48 -69 -54
-151 -17 -229 28 -62 38 -59 -117 -37 -381 53 -771 218 -1079 456 -92 71 -93
72 -64 78 94 20 185 121 185 205 0 25 3 24 78 -33 42 -32 113 -82 158 -110z
m2367 61 c25 -47 83 -95 137 -113 l52 -18 -92 -71 c-306 -236 -699 -402 -1078
-455 -155 -22 -145 -25 -117 37 37 78 31 160 -17 229 -10 14 -18 28 -18 31 0
2 42 10 93 17 337 45 682 192 962 409 l50 38 7 -37 c4 -21 13 -51 21 -67z
m-1258 -468 c50 -49 15 -135 -55 -135 -19 0 -40 9 -55 25 -50 49 -15 135 55
135 19 0 40 -9 55 -25z"/>
<path d="M1714 4632 c-57 -9 -79 -97 -35 -133 69 -56 163 22 121 101 -11 21
-55 37 -86 32z"/>
<path d="M3352 4625 c-73 -31 -48 -145 32 -145 48 0 80 29 80 73 0 63 -52 97
-112 72z"/>
<path d="M535 3461 c-51 -22 -65 -91 -25 -131 46 -46 130 -11 130 54 0 58 -55
98 -105 77z"/>
<path d="M4523 3460 c-46 -19 -59 -95 -21 -130 28 -26 82 -26 108 0 20 20 24
36 20 75 -4 43 -63 73 -107 55z"/>
<path d="M510 1790 c-50 -50 -15 -134 56 -134 45 0 74 31 74 80 0 65 -84 100
-130 54z"/>
<path d="M4500 1790 c-25 -25 -26 -80 -1 -111 36 -45 126 -21 131 36 6 61 -21
95 -75 95 -22 0 -43 -8 -55 -20z"/>
<path d="M1679 621 c-45 -36 -21 -126 36 -131 60 -6 95 21 95 73 0 68 -77 102
-131 58z"/>
<path d="M3330 620 c-40 -40 -15 -128 38 -131 62 -4 96 23 96 77 0 66 -87 101
-134 54z"/>
</g>
</svg>
